HIERARCHY
ROOT Hips
{
	OFFSET -6.501393 103.544830 -3.308209
	CHANNELS 6 Xposition Yposition Zposition Xrotation Yrotation Zrotation
	JOINT Chest
	{
		OFFSET 3.490766 13.188873 -0.149589
		CHANNELS 3 Xrotation Yrotation Zrotation
		JOINT Chest2
		{
			OFFSET 2.498665 20.695694 4.950911
			CHANNELS 3 Xrotation Yrotation Zrotation
			JOINT Chest3
			{
				OFFSET 2.586676 14.483231 2.522879
				CHANNELS 3 Xrotation Yrotation Zrotation
				JOINT Neck
				{
					OFFSET 3.658716 16.642105 2.875753
					CHANNELS 3 Xrotation Yrotation Zrotation
					JOINT Head
					{
						OFFSET 0.562498 9.917938 3.338517
						CHANNELS 3 Xrotation Yrotation Zrotation
						End Site
						{
							OFFSET 0.623727 9.927261 3.299727
						}
					}
				}
				JOINT LeftCollar
				{
					OFFSET 3.158933 11.826752 7.207877
					CHANNELS 3 Xrotation Yrotation Zrotation
					JOINT LeftUpArm
					{
						OFFSET 9.662516 -4.699112 13.894368
						CHANNELS 3 Xrotation Yrotation Zrotation
						JOINT LeftLowArm
						{
							OFFSET -26.061760 -12.379883 17.528591
							CHANNELS 3 Xrotation Yrotation Zrotation
							JOINT LeftHand
							{
								OFFSET -23.105013 -13.493835 13.602276
								CHANNELS 3 Xrotation Yrotation Zrotation
								End Site
								{
									OFFSET -5.049747 -2.949127 2.972858
								}
							}
						}
					}
				}
				JOINT RightCollar
				{
					OFFSET -1.958067 14.041336 0.903037
					CHANNELS 3 Xrotation Yrotation Zrotation
					JOINT RightUpArm
					{
						OFFSET -7.902977 5.073425 -14.842493
						CHANNELS 3 Xrotation Yrotation Zrotation
						JOINT RightLowArm
						{
							OFFSET -31.237156 3.028915 12.441875
							CHANNELS 3 Xrotation Yrotation Zrotation
							JOINT RightHand
							{
								OFFSET 1.770481 -9.929611 28.270538
								CHANNELS 3 Xrotation Yrotation Zrotation
								End Site
								{
									OFFSET 0.386944 -2.170212 6.178812
								}
							}
						}
					}
				}
			}
		}
	}
	JOINT LeftUpLeg
	{
		OFFSET 6.008414 -1.501137 7.878114
		CHANNELS 3 Xrotation Yrotation Zrotation
		JOINT LeftLowLeg
		{
			OFFSET -32.490929 -13.194344 31.847103
			CHANNELS 3 Xrotation Yrotation Zrotation
			JOINT LeftFoot
			{
				OFFSET -27.394722 -30.609779 17.695694
				CHANNELS 3 Xrotation Yrotation Zrotation
				JOINT LeftToe
				{
					OFFSET -14.301807 2.204399 18.712517
					CHANNELS 3 Xrotation Yrotation Zrotation
					End Site
					{
						OFFSET -6.634720 15.950195 16.159538
					}
				}
			}
		}
	}
	JOINT RightUpLeg
	{
		OFFSET -6.008467 1.500946 -7.878115
		CHANNELS 3 Xrotation Yrotation Zrotation
		JOINT RightLowLeg
		{
			OFFSET -7.669543 -46.691193 2.263450
			CHANNELS 3 Xrotation Yrotation Zrotation
			JOINT RightFoot
			{
				OFFSET 16.419405 -39.122486 -14.156796
				CHANNELS 3 Xrotation Yrotation Zrotation
				JOINT RightToe
				{
					OFFSET -13.268997 -16.468420 10.596312
					CHANNELS 3 Xrotation Yrotation Zrotation
					End Site
					{
						OFFSET -19.207935 -1.991539 13.661808
					}
				}
			}
		}
	}
}
MOTION
Frames: 14
Frame Time: 0.033333
67.047104 94.142723 -6.399704 9.676533 205.523534 33.528265 -27.181419 4.945317 0.998513 1.738093 7.403066 -11.280453 9.648767 5.421678 6.593839 11.801019 25.817422 -28.649092 0.000003 -0.000000 0.000001 -4.060051 39.609756 -1.816057 -39.134307 43.091653 29.526915 -8.324612 18.955331 -10.946229 0.000003 -0.000003 -0.000005 -2.259424 -15.783782 -19.934655 -11.067358 -24.434501 -34.354718 -139.368016 61.383033 -34.484761 -0.000001 -0.000000 -0.000002 39.108605 -4.636825 27.404751 6.339154 -9.017122 5.674583 -4.302420 18.091484 -14.423172 -0.000006 0.000003 0.000006 7.190599 -7.466962 -63.740514 -8.353309 0.118266 17.707737 13.383475 -13.018274 11.560815 0.000000 0.000003 -0.000000 
66.626839 94.415390 -6.438708 11.168017 209.841183 34.417077 -27.134071 4.907020 1.093871 2.252947 7.394318 -11.123364 8.752337 4.899021 6.939826 13.092889 26.410204 -29.571222 0.000000 -0.000002 0.000001 -3.026542 40.309820 -2.709119 -37.755506 42.809119 28.473689 -8.733722 19.088121 -12.193518 0.000003 -0.000004 0.000003 -2.330534 -16.000992 -20.623094 -12.125911 -25.310774 -36.222839 -137.241901 60.468662 -36.903505 -0.000001 -0.000001 -0.000001 40.211800 -4.591196 28.084662 5.305270 -8.700411 4.893623 -5.924382 15.455892 -13.721987 0.000001 -0.000005 0.000002 8.501472 -8.562059 -61.856645 -7.184899 0.915896 15.077497 12.519762 -10.278500 13.710961 0.000001 0.000003 -0.000000 
66.217216 94.705360 -6.492962 11.558699 214.582878 35.504170 -27.953236 5.522258 0.118757 1.514872 7.389170 -11.358692 9.107578 4.271820 8.372746 14.075196 26.964607 -30.545296 0.000001 0.000002 0.000001 -2.230448 41.466908 -3.570109 -36.476711 42.291859 27.081420 -8.925837 19.650186 -13.674989 -0.000000 -0.000004 -0.000005 -3.031193 -16.459205 -21.382503 -13.250927 -26.163757 -38.089076 -134.924158 58.574726 -44.250716 -0.000005 0.000001 -0.000002 40.249150 -4.623729 28.298205 4.471536 -8.313076 4.053428 -7.538523 13.683636 -13.523842 -0.000004 -0.000001 0.000005 10.014741 -9.675354 -59.827936 -6.873688 1.257018 12.830803 11.925363 -8.828673 14.808181 0.000000 0.000003 -0.000000 
65.850792 95.001709 -6.561685 11.664975 218.115466 36.711536 -28.628391 6.359160 -1.431242 0.900828 7.541506 -11.830246 9.287747 4.212194 10.052695 14.494800 27.099727 -30.333553 0.000002 -0.000004 0.000001 -1.686656 41.897702 -4.006867 -36.294539 42.099917 26.878598 -9.470566 19.855362 -14.294849 0.000005 -0.000003 0.000001 -3.356584 -16.845306 -21.828820 -13.993748 -26.885580 -39.515004 -132.783522 57.511347 -45.964885 -0.000001 -0.000000 0.000001 40.164183 -4.691762 28.178183 3.149226 -8.062279 2.627281 -8.367947 12.612529 -13.456262 -0.000001 -0.000002 0.000003 11.069730 -10.474100 -58.525036 -6.675086 1.678236 11.377044 11.560265 -8.326783 15.395697 0.000000 0.000006 -0.000000 
65.484390 95.311790 -6.637936 13.504751 222.473851 38.205141 -28.250041 6.845259 -2.718040 0.106110 7.931533 -12.759304 9.389744 3.114666 12.061844 14.002007 27.242488 -30.012633 -0.000003 -0.000005 -0.000001 -1.734821 42.157686 -3.673286 -35.777501 40.863919 26.345081 -11.049309 20.929677 -13.501217 0.000005 -0.000002 -0.000003 -3.647876 -17.783164 -22.409767 -14.125542 -27.839259 -40.987098 -130.981773 55.241002 -57.438127 -0.000003 -0.000000 -0.000002 40.766018 -4.122639 28.774453 2.504218 -8.138968 2.204870 -9.535929 10.921756 -13.266094 -0.000003 -0.000002 0.000002 13.651144 -12.297736 -55.135497 -7.789965 1.794403 8.904136 11.613729 -8.815159 15.085731 0.000001 -0.000004 -0.000000 
65.137016 95.634918 -6.722169 15.972963 228.170993 40.729012 -27.337226 7.118147 -3.709079 -0.454068 8.707834 -14.081388 9.017439 1.590895 13.648470 13.719890 26.788806 -28.752791 0.000003 -0.000001 -0.000000 -1.774594 41.316248 -3.635976 -34.975264 39.536451 25.084846 -12.178336 21.722624 -13.356575 0.000002 -0.000002 0.000001 -4.172892 -18.861417 -23.601669 -14.985047 -29.102364 -42.482800 -128.823570 53.093502 -63.099842 -0.000005 -0.000001 -0.000001 41.425285 -4.167311 29.147142 1.965422 -7.447718 2.587754 -11.782291 8.963197 -13.500374 -0.000005 -0.000003 -0.000000 17.546297 -14.350564 -50.186119 -9.582331 1.794356 7.504488 11.806929 -11.564295 12.281211 0.000003 -0.000004 0.000001 
64.774101 95.947433 -6.772509 17.809904 232.613676 43.411156 -27.078807 7.941914 -5.543364 -0.031577 8.037306 -12.759953 8.001804 1.344185 13.189748 13.898422 26.861638 -29.182400 -0.000001 -0.000004 0.000001 -1.659370 41.001612 -4.008773 -34.289544 38.710326 23.700604 -12.632706 22.724972 -13.288665 0.000004 -0.000005 -0.000000 -4.536842 -19.473296 -24.567774 -16.200831 -30.019078 -43.761090 -127.498404 51.746712 -65.891579 -0.000001 0.000000 0.000001 41.235997 -4.591499 28.612858 1.689726 -7.070769 2.625386 -12.674652 7.217864 -13.232403 -0.000000 -0.000003 -0.000001 19.882119 -15.364256 -46.983611 -10.025495 1.924724 6.760510 11.942720 -13.410669 10.443678 0.000001 0.000003 0.000001 
64.437141 96.245155 -6.826246 21.289664 238.075369 46.696364 -26.504150 8.554464 -6.997353 -0.060698 8.009306 -13.045326 7.259192 0.414576 13.341621 13.262288 25.867301 -28.043377 -0.000000 -0.000002 -0.000003 -2.515678 40.904770 -4.282944 -33.010591 38.307208 20.990519 -11.854540 22.523403 -15.056088 -0.000000 -0.000002 -0.000005 -5.059064 -19.017219 -25.192582 -17.203551 -29.165338 -42.411493 -125.610676 52.184141 -58.713959 -0.000003 -0.000002 0.000001 40.993552 -4.415453 28.429172 2.094949 -6.334401 4.037579 -14.838344 4.811938 -13.607827 -0.000003 -0.000002 0.000002 21.806508 -15.676263 -42.705095 -9.291751 2.292586 7.858198 10.619564 -14.436482 7.617174 0.000000 0.000003 -0.000000 
64.081383 96.525475 -6.841118 25.925252 243.594790 50.849751 -25.605886 8.548853 -7.440360 -0.012495 7.576593 -12.293795 6.063403 0.791179 11.930742 12.516895 24.011817 -25.693065 0.000001 -0.000005 -0.000001 -3.426386 40.294595 -3.777416 -32.148901 37.715335 19.616218 -11.996066 22.509389 -16.145867 -0.000003 -0.000003 -0.000005 -5.598602 -19.351435 -25.836591 -16.524533 -28.453854 -39.126216 -120.948853 52.536989 -47.926246 -0.000003 -0.000000 -0.000001 40.286324 -3.701966 28.709416 2.536050 -5.902153 4.760480 -16.558255 2.476016 -13.549947 0.000001 -0.000003 -0.000000 22.630416 -15.158934 -38.973169 -8.258553 2.439635 6.825257 9.593306 -14.991215 4.862687 0.000000 0.000001 -0.000002 
63.742153 96.776634 -6.841890 29.734662 247.261481 54.812060 -25.038500 8.528568 -7.727261 0.221602 7.197637 -11.522959 4.985248 1.789395 10.931781 12.426439 22.975032 -24.349537 0.000003 -0.000003 -0.000001 -4.274879 40.130961 -3.035408 -31.325556 37.343704 19.148797 -12.698819 22.607711 -16.309457 0.000003 0.000000 0.000002 -5.212707 -19.366146 -25.824373 -15.649598 -28.058480 -35.884400 -110.918905 50.559188 -39.629495 -0.000001 -0.000003 -0.000000 39.461438 -3.663636 28.146038 3.045961 -5.829116 5.211249 -17.678107 1.198110 -13.611461 -0.000003 -0.000001 0.000001 22.233864 -14.574932 -37.786994 -6.488435 2.597917 7.397960 8.573131 -15.389917 2.272590 -0.000002 0.000003 -0.000002 
63.387539 97.004562 -6.804287 35.779485 251.565566 61.242509 -24.833316 8.561320 -8.094254 0.483852 6.745508 -10.599860 4.188726 2.481746 9.619691 11.927732 21.784200 -22.910442 0.000003 -0.000004 0.000001 -4.712268 40.621696 -2.076199 -31.181251 36.484197 19.528605 -14.276738 23.797335 -14.077151 0.000001 -0.000004 -0.000002 -4.486133 -19.246995 -24.997826 -14.509019 -28.392284 -33.009297 -105.853589 49.708402 -37.814673 0.000001 -0.000001 -0.000001 38.361658 -3.513118 27.630755 3.124874 -5.755878 4.908899 -17.816706 0.150567 -13.167583 -0.000003 -0.000003 0.000003 21.677579 -13.714952 -36.077168 -5.035865 2.513351 7.578412 8.297543 -16.230317 0.058934 0.000001 0.000003 -0.000002 
63.062458 97.205742 -6.770446 45.927657 255.566527 70.834942 -24.542857 8.714891 -8.604050 0.498460 6.305754 -9.845328 3.683942 2.990800 8.766773 11.229708 20.302420 -21.049163 0.000000 -0.000001 -0.000001 -5.594581 40.893733 -1.833510 -30.422677 35.080664 18.086160 -15.370314 25.338866 -12.876513 0.000004 -0.000006 -0.000003 -4.554676 -18.903964 -24.919414 -13.589112 -27.525324 -28.631960 -108.355706 49.704960 -42.246008 -0.000003 -0.000001 0.000001 37.412873 -2.281890 28.276596 3.551565 -5.796263 4.750206 -18.128205 -0.975682 -12.851190 -0.000002 0.000000 0.000004 21.580083 -13.031255 -33.572466 -4.594003 2.278733 7.655557 8.630818 -18.409566 -1.629503 0.000002 0.000008 0.000002 
62.755619 97.374458 -6.731474 55.656452 258.078807 80.846333 -24.108707 8.795956 -8.975458 0.032644 5.947482 -9.423054 3.725618 3.542721 8.025584 10.142298 19.214763 -20.082901 0.000004 -0.000003 -0.000001 -6.229593 41.151077 -1.790897 -30.646461 34.887042 17.623029 -15.510320 26.539211 -11.649112 0.000002 0.000000 -0.000006 -4.552561 -18.690370 -25.258415 -12.736339 -26.383684 -25.236530 -111.772289 50.128384 -45.789752 -0.000004 0.000000 -0.000005 36.471714 -1.819919 28.209436 3.854808 -6.333396 4.154144 -17.983796 -1.224597 -12.639044 -0.000006 -0.000005 -0.000001 21.038055 -12.678925 -33.443092 -4.098166 2.109140 8.894692 9.528444 -20.534766 -2.367492 0.000001 0.000004 -0.000000 
62.461773 97.525513 -6.682536 72.124414 260.425360 98.287966 -23.536530 8.615186 -8.846598 -0.528223 6.089128 -9.912376 3.507586 4.111214 8.043421 9.303254 18.576387 -19.818236 -0.000000 -0.000003 -0.000001 -5.732051 41.852855 -2.543247 -30.236209 35.745559 17.561692 -15.205849 27.266154 -11.749133 -0.000003 -0.000005 0.000001 -4.563696 -18.782011 -26.174858 -12.096762 -24.371399 -21.752189 -113.200700 47.889865 -52.671806 0.000003 0.000001 0.000001 35.061717 -1.633951 27.527935 4.160580 -7.087976 3.646408 -17.932134 -2.131311 -12.337027 -0.000002 -0.000001 0.000002 20.332259 -12.145547 -32.788699 -4.213403 1.931038 10.550497 10.118515 -22.956621 -3.660598 0.000003 0.000006 -0.000000 
